<?xml version="1.0" standalone="no"?>
<!DOCTYPE svg PUBLIC "-//W3C//DTD SVG 20010904//EN"
 "http://www.w3.org/TR/2001/REC-SVG-20010904/DTD/svg10.dtd">
<svg version="1.0" xmlns="http://www.w3.org/2000/svg"
 width="260.000000pt" height="260.000000pt" viewBox="0 0 260.000000 260.000000"
 preserveAspectRatio="xMidYMid meet">
<metadata>
Created by potrace 1.14, written by Peter Selinger 2001-2017
</metadata>
<g transform="translate(0.000000,260.000000) scale(0.100000,-0.100000)"
fill="#000000" stroke="none">
<path d="M545 2544 c-29 -34 -44 -58 -39 -66 4 -7 49 -56 99 -108 73 -76 193
-203 300 -316 5 -6 69 -74 141 -150 72 -76 143 -152 158 -168 l27 -30 -71 -70
-70 -71 -47 50 c-25 28 -85 91 -132 140 -47 50 -151 160 -231 244 -80 85 -183
195 -230 244 l-85 89 -52 -53 c-29 -30 -52 -58 -52 -64 1 -10 44 -59 188 -210
60 -64 278 -294 460 -487 40 -42 72 -79 72 -83 0 -3 -30 -39 -67 -79 l-67 -72
-76 80 c-42 44 -117 123 -167 176 -50 52 -126 133 -170 180 -43 46 -118 125
-165 175 -48 49 -106 111 -130 136 l-44 46 -47 -51 -46 -51 60 -65 c97 -104
443 -470 604 -640 44 -47 107 -113 138 -146 l57 -62 88 92 c48 50 125 131 172
181 46 49 125 132 174 184 50 52 128 136 175 186 47 49 128 135 180 190 52 55
100 105 105 111 6 6 76 80 156 165 220 232 260 277 259 286 0 4 -22 30 -48 57
l-46 48 -70 -73 c-87 -93 -181 -192 -367 -389 -80 -85 -178 -189 -218 -230
l-71 -75 -57 60 c-31 33 -119 126 -195 206 -76 81 -148 157 -159 170 -11 13
-55 60 -98 104 -42 44 -116 121 -164 171 l-86 92 -46 -54z"/>
<path d="M2209 2322 c-35 -37 -141 -148 -236 -247 -94 -99 -190 -200 -214
-225 -23 -25 -122 -128 -219 -230 -98 -102 -194 -203 -215 -225 -20 -22 -115
-121 -210 -220 -95 -99 -195 -204 -222 -234 l-50 -54 0 -95 0 -96 85 89 c47
50 164 173 261 275 97 101 222 232 277 290 56 58 116 121 134 140 18 19 73 78
124 130 50 53 179 187 286 300 107 112 234 245 282 295 l87 90 -47 42 c-26 23
-50 42 -53 43 -3 0 -34 -30 -70 -68z"/>
<path d="M2344 2134 c-71 -75 -146 -155 -167 -177 -22 -23 -85 -89 -140 -147
-56 -58 -149 -155 -207 -216 -58 -60 -189 -197 -291 -304 -103 -107 -206 -215
-229 -240 -44 -46 -414 -432 -439 -457 -10 -10 -13 -52 -13 -171 -1 -137 -3
-160 -19 -177 -79 -88 -11 -245 108 -245 15 0 42 9 60 20 86 52 100 165 29
239 -25 26 -26 32 -26 150 l0 123 59 62 c32 33 86 90 120 126 l60 65 2 -150
c0 -82 2 -194 4 -248 l4 -99 -35 -30 c-126 -111 12 -324 154 -238 82 50 98
181 29 239 -12 10 -15 64 -16 327 l-2 315 79 81 79 81 -1 -394 c-1 -392 -1
-395 -23 -423 -60 -76 -32 -196 53 -232 43 -18 74 -18 112 2 93 46 108 174 29
247 l-31 28 0 478 c0 405 2 481 14 493 27 27 183 192 274 288 49 52 126 133
170 180 45 47 151 160 236 250 85 91 169 180 187 198 l32 33 -57 26 c-31 14
-60 27 -63 29 -3 2 -64 -58 -135 -132z"/>
</g>
</svg>
